<svg xmlns="http://www.w3.org/2000/svg" viewBox="0 0 96 112" role="img" aria-label="Karakter warga desa pria">
  <ellipse cx="48" cy="102" rx="24" ry="7" fill="#10202d" opacity=".15"/>
  <path d="M28 28h40L48 12z" fill="#f3cf71"/>
  <rect x="23" y="28" width="50" height="5" rx="2" fill="#c99035"/>
  <rect x="31" y="30" width="33" height="8" rx="3" fill="#242026"/>
  <rect x="32" y="36" width="31" height="23" rx="6" fill="#b97855"/>
  <rect x="32" y="38" width="5" height="17" fill="#87543d"/>
  <rect x="58" y="37" width="6" height="8" fill="#242026"/>
  <rect x="39" y="45" width="5" height="4" fill="#f7e9d4"/>
  <rect x="40" y="46" width="3" height="3" fill="#17212b"/>
  <rect x="54" y="45" width="5" height="4" fill="#f7e9d4"/>
  <rect x="55" y="46" width="3" height="3" fill="#17212b"/>
  <rect x="48" y="49" width="5" height="5" fill="#87543d"/>
  <rect x="44" y="55" width="12" height="3" fill="#17212b"/>
  <rect x="27" y="59" width="39" height="36" rx="8" fill="#6d4a34"/>
  <rect x="28" y="64" width="7" height="28" fill="#4b3022"/>
  <rect x="58" y="64" width="7" height="28" fill="#4b3022"/>
  <rect x="39" y="61" width="16" height="32" fill="#68776e"/>
  <rect x="45" y="61" width="4" height="32" fill="#17212b"/>
  <rect x="20" y="76" width="10" height="13" rx="4" fill="#b97855"/>
  <rect x="66" y="76" width="10" height="13" rx="4" fill="#b97855"/>
  <rect x="36" y="92" width="11" height="19" fill="#28506f"/>
  <rect x="51" y="92" width="11" height="19" fill="#28506f"/>
  <rect x="31" y="108" width="17" height="5" rx="2" fill="#20242a"/>
  <rect x="51" y="108" width="18" height="5" rx="2" fill="#20242a"/>
</svg>
